<svg xmlns="http://www.w3.org/2000/svg" xmlns:xlink="http://www.w3.org/1999/xlink" width="500" zoomAndPan="magnify" viewBox="0 0 375 374.999991" height="500" preserveAspectRatio="xMidYMid meet" version="1.0"><defs><clipPath id="d008f4e99d"><path d="M 99 220 L 150 220 L 150 270.429688 L 99 270.429688 Z M 99 220 " clip-rule="nonzero"/></clipPath><clipPath id="6212abfc5b"><path d="M 80.144531 129 L 207 129 L 207 253 L 80.144531 253 Z M 80.144531 129 " clip-rule="nonzero"/></clipPath><clipPath id="6a42da1656"><path d="M 225 104.679688 L 276 104.679688 L 276 155 L 225 155 Z M 225 104.679688 " clip-rule="nonzero"/></clipPath><clipPath id="c8371c9c96"><path d="M 168 122 L 294.644531 122 L 294.644531 246 L 168 246 Z M 168 122 " clip-rule="nonzero"/></clipPath></defs><g clip-path="url(#d008f4e99d)"><path fill="#004aad" d="M 124.566406 220.660156 C 138.300781 220.660156 149.4375 231.796875 149.4375 245.535156 C 149.4375 259.269531 138.300781 270.40625 124.566406 270.40625 C 110.828125 270.40625 99.691406 259.269531 99.691406 245.535156 C 99.691406 231.796875 110.828125 220.660156 124.566406 220.660156 " fill-opacity="1" fill-rule="nonzero"/></g><g clip-path="url(#6212abfc5b)"><path fill="#004aad" d="M 190.253906 171.988281 L 190.253906 230.558594 L 104.285156 180.925781 L 162.59375 147.261719 C 163.191406 146.917969 163.554688 146.28125 163.554688 145.59375 L 163.554688 131.445312 C 163.554688 129.96875 161.953125 129.042969 160.671875 129.78125 L 84.164062 173.957031 C 81.671875 175.390625 80.136719 178.050781 80.136719 180.925781 C 80.136719 183.800781 81.671875 186.460938 84.164062 187.894531 L 194.28125 251.472656 C 195.523438 252.191406 196.914062 252.550781 198.304688 252.550781 C 199.695312 252.550781 201.085938 252.191406 202.332031 251.472656 C 204.820312 250.035156 206.355469 247.378906 206.355469 244.503906 L 206.355469 179.097656 C 206.355469 178.414062 205.988281 177.777344 205.398438 177.433594 L 193.144531 170.324219 C 191.859375 169.582031 190.253906 170.507812 190.253906 171.988281 " fill-opacity="1" fill-rule="nonzero"/></g><g clip-path="url(#6a42da1656)"><path fill="#b4b4b4" d="M 250.410156 154.335938 C 236.675781 154.335938 225.535156 143.199219 225.535156 129.460938 C 225.535156 115.722656 236.675781 104.589844 250.410156 104.589844 C 264.148438 104.589844 275.285156 115.722656 275.285156 129.460938 C 275.285156 143.199219 264.148438 154.335938 250.410156 154.335938 " fill-opacity="1" fill-rule="nonzero"/></g><g clip-path="url(#c8371c9c96)"><path fill="#b4b4b4" d="M 184.71875 203.007812 L 184.71875 144.433594 L 270.691406 194.070312 L 212.378906 227.734375 C 211.785156 228.078125 211.421875 228.714844 211.421875 229.402344 L 211.421875 243.550781 C 211.421875 245.03125 213.019531 245.953125 214.304688 245.214844 L 290.8125 201.042969 C 293.304688 199.605469 294.839844 196.945312 294.839844 194.070312 C 294.839844 191.195312 293.304688 188.539062 290.8125 187.101562 L 180.695312 123.519531 C 179.449219 122.804688 178.058594 122.445312 176.671875 122.445312 C 175.28125 122.445312 173.890625 122.804688 172.644531 123.519531 C 170.15625 124.960938 168.621094 127.617188 168.621094 130.492188 L 168.621094 195.898438 C 168.621094 196.585938 168.984375 197.21875 169.578125 197.5625 L 181.832031 204.671875 C 183.113281 205.414062 184.71875 204.488281 184.71875 203.007812 " fill-opacity="1" fill-rule="nonzero"/></g></svg>