<svg xmlns="http://www.w3.org/2000/svg" xmlns:xlink="http://www.w3.org/1999/xlink" width="500" zoomAndPan="magnify" viewBox="0 0 375 374.999991" height="500" preserveAspectRatio="xMidYMid meet" version="1.0"><defs><g/><clipPath id="24d4df59f6"><path d="M 70 202 L 93 202 L 93 224.40625 L 70 224.40625 Z M 70 202 " clip-rule="nonzero"/></clipPath><clipPath id="ac35ab28e4"><path d="M 61.378906 162 L 118 162 L 118 217 L 61.378906 217 Z M 61.378906 162 " clip-rule="nonzero"/></clipPath><clipPath id="ce98a94411"><path d="M 100 158 L 156.628906 158 L 156.628906 214 L 100 214 Z M 100 158 " clip-rule="nonzero"/></clipPath></defs><g clip-path="url(#24d4df59f6)"><path fill="#004aad" d="M 81.023438 202.402344 C 87.097656 202.402344 92.023438 207.328125 92.023438 213.402344 C 92.023438 219.476562 87.097656 224.398438 81.023438 224.398438 C 74.949219 224.398438 70.023438 219.476562 70.023438 213.402344 C 70.023438 207.328125 74.949219 202.402344 81.023438 202.402344 " fill-opacity="1" fill-rule="nonzero"/></g><g clip-path="url(#ac35ab28e4)"><path fill="#004aad" d="M 110.070312 180.878906 L 110.070312 206.78125 L 72.054688 184.832031 L 97.839844 169.945312 C 98.101562 169.792969 98.265625 169.511719 98.265625 169.207031 L 98.265625 162.953125 C 98.265625 162.296875 97.554688 161.886719 96.988281 162.214844 L 63.15625 181.75 C 62.054688 182.382812 61.375 183.558594 61.375 184.832031 C 61.375 186.101562 62.054688 187.277344 63.15625 187.914062 L 111.851562 216.027344 C 112.402344 216.34375 113.015625 216.503906 113.628906 216.503906 C 114.246094 216.503906 114.859375 216.34375 115.410156 216.027344 C 116.511719 215.390625 117.191406 214.214844 117.191406 212.945312 L 117.191406 184.023438 C 117.191406 183.71875 117.027344 183.4375 116.765625 183.289062 L 111.347656 180.144531 C 110.78125 179.816406 110.070312 180.222656 110.070312 180.878906 " fill-opacity="1" fill-rule="nonzero"/></g><path fill="#333333" d="M 136.671875 173.074219 C 130.597656 173.074219 125.671875 168.148438 125.671875 162.074219 C 125.671875 156 130.597656 151.074219 136.671875 151.074219 C 142.746094 151.074219 147.671875 156 147.671875 162.074219 C 147.671875 168.148438 142.746094 173.074219 136.671875 173.074219 " fill-opacity="1" fill-rule="nonzero"/><g clip-path="url(#ce98a94411)"><path fill="#333333" d="M 107.625 194.597656 L 107.625 168.695312 L 145.640625 190.644531 L 119.855469 205.53125 C 119.589844 205.683594 119.429688 205.964844 119.429688 206.265625 L 119.429688 212.523438 C 119.429688 213.179688 120.136719 213.585938 120.703125 213.261719 L 154.539062 193.726562 C 155.640625 193.089844 156.316406 191.914062 156.316406 190.644531 C 156.316406 189.371094 155.640625 188.195312 154.539062 187.5625 L 105.84375 159.445312 C 105.292969 159.128906 104.679688 158.972656 104.0625 158.972656 C 103.449219 158.972656 102.835938 159.128906 102.285156 159.445312 C 101.183594 160.082031 100.503906 161.257812 100.503906 162.53125 L 100.503906 191.453125 C 100.503906 191.753906 100.664062 192.035156 100.929688 192.1875 L 106.347656 195.332031 C 106.914062 195.660156 107.625 195.25 107.625 194.597656 " fill-opacity="1" fill-rule="nonzero"/></g><g fill="#000000" fill-opacity="1"><g transform="translate(155.211294, 205.874986)"><g><path d="M 30.5625 -39.015625 L 30.5625 -37.953125 L 18.515625 -37.953125 L 18.515625 0.0625 L 14.109375 0.0625 L 14.109375 -37.953125 L 2.046875 -37.953125 L 2.046875 -39.015625 Z M 30.5625 -39.015625 "/></g></g></g><g fill="#000000" fill-opacity="1"><g transform="translate(190.558463, 205.874986)"><g><path d="M 31.4375 -39.015625 L 32.421875 -39.015625 L 32.421875 -14.40625 C 32.421875 -4.050781 27.390625 1.125 17.328125 1.125 C 15.503906 1.125 13.722656 0.90625 11.984375 0.46875 C 10.242188 0.03125 8.679688 -0.742188 7.296875 -1.859375 C 5.910156 -2.984375 4.8125 -4.554688 4 -6.578125 C 3.195312 -8.609375 2.796875 -11.21875 2.796875 -14.40625 L 2.796875 -39.015625 L 7.265625 -39.015625 L 7.265625 -14.40625 C 7.265625 -13.5 7.316406 -12.441406 7.421875 -11.234375 C 7.523438 -10.035156 7.765625 -8.816406 8.140625 -7.578125 C 8.515625 -6.335938 9.09375 -5.175781 9.875 -4.09375 C 10.664062 -3.019531 11.742188 -2.140625 13.109375 -1.453125 C 14.472656 -0.773438 16.191406 -0.4375 18.265625 -0.4375 C 20.046875 -0.4375 21.722656 -0.640625 23.296875 -1.046875 C 24.867188 -1.460938 26.265625 -2.195312 27.484375 -3.25 C 28.710938 -4.3125 29.675781 -5.785156 30.375 -7.671875 C 31.082031 -9.554688 31.4375 -11.988281 31.4375 -14.96875 Z M 31.4375 -39.015625 "/></g></g></g><g fill="#000000" fill-opacity="1"><g transform="translate(228.763199, 205.874986)"><g><path d="M 18.140625 -20.75 C 19.921875 -20.539062 21.609375 -20.082031 23.203125 -19.375 C 24.796875 -18.675781 26.097656 -17.632812 27.109375 -16.25 C 28.128906 -14.863281 28.640625 -13.050781 28.640625 -10.8125 C 28.640625 -8.695312 28.179688 -6.957031 27.265625 -5.59375 C 26.359375 -4.226562 25.222656 -3.160156 23.859375 -2.390625 C 22.492188 -1.628906 21.09375 -1.070312 19.65625 -0.71875 C 18.226562 -0.363281 16.957031 -0.144531 15.84375 -0.0625 C 14.726562 0.0195312 14.003906 0.0625 13.671875 0.0625 L 2.984375 0.0625 L 2.984375 -39.015625 L 14.78125 -39.015625 C 15.363281 -39.015625 16.148438 -38.972656 17.140625 -38.890625 C 18.140625 -38.804688 19.21875 -38.617188 20.375 -38.328125 C 21.53125 -38.035156 22.632812 -37.585938 23.6875 -36.984375 C 24.75 -36.390625 25.609375 -35.582031 26.265625 -34.5625 C 26.929688 -33.550781 27.265625 -32.257812 27.265625 -30.6875 C 27.265625 -28.613281 26.800781 -26.914062 25.875 -25.59375 C 24.945312 -24.269531 23.785156 -23.222656 22.390625 -22.453125 C 21.003906 -21.691406 19.585938 -21.125 18.140625 -20.75 Z M 12.421875 -37.953125 L 7.453125 -37.953125 L 7.453125 -21 L 10.8125 -21 C 14.457031 -21 17.332031 -21.734375 19.4375 -23.203125 C 21.550781 -24.671875 22.609375 -26.9375 22.609375 -30 C 22.609375 -33.03125 21.664062 -35.113281 19.78125 -36.25 C 17.894531 -37.382812 15.441406 -37.953125 12.421875 -37.953125 Z M 10.8125 -1 C 13.207031 -1 15.398438 -1.242188 17.390625 -1.734375 C 19.378906 -2.234375 20.972656 -3.144531 22.171875 -4.46875 C 23.378906 -5.800781 23.984375 -7.6875 23.984375 -10.125 C 23.984375 -11.78125 23.671875 -13.351562 23.046875 -14.84375 C 22.421875 -16.332031 21.28125 -17.550781 19.625 -18.5 C 17.96875 -19.457031 15.566406 -19.9375 12.421875 -19.9375 L 7.453125 -19.9375 L 7.453125 -1 Z M 10.8125 -1 "/></g></g></g><g fill="#000000" fill-opacity="1"><g transform="translate(262.619466, 205.874986)"><g><path d="M 3.609375 0.0625 L 3.609375 -39.015625 L 8.078125 -39.015625 L 8.078125 0.0625 Z M 3.609375 0.0625 "/></g></g></g><g fill="#000000" fill-opacity="1"><g transform="translate(277.280331, 205.874986)"><g><path d="M 30.0625 0.0625 L 24.84375 0.0625 L 14.96875 -16.78125 L 4.90625 0.0625 L 3.734375 0.0625 L 14.40625 -17.765625 L 1.984375 -39.015625 L 7.140625 -39.015625 L 17.015625 -22.171875 L 27.09375 -39.015625 L 28.328125 -39.015625 L 17.640625 -21.125 Z M 30.0625 0.0625 "/></g></g></g></svg>