<svg xmlns="http://www.w3.org/2000/svg" xmlns:xlink="http://www.w3.org/1999/xlink" width="500" zoomAndPan="magnify" viewBox="0 0 375 374.999991" height="500" preserveAspectRatio="xMidYMid meet" version="1.0"><defs><clipPath id="22176f610b"><path d="M 89 224 L 145 224 L 145 280.351562 L 89 280.351562 Z M 89 224 " clip-rule="nonzero"/></clipPath><clipPath id="ed65e9cac5"><path d="M 67.296875 122 L 209 122 L 209 261 L 67.296875 261 Z M 67.296875 122 " clip-rule="nonzero"/></clipPath><clipPath id="c3431126b3"><path d="M 230 94.351562 L 286 94.351562 L 286 151 L 230 151 Z M 230 94.351562 " clip-rule="nonzero"/></clipPath></defs><g clip-path="url(#22176f610b)"><path fill="#004aad" d="M 117.035156 224.628906 C 132.414062 224.628906 144.882812 237.097656 144.882812 252.476562 C 144.882812 267.859375 132.414062 280.324219 117.035156 280.324219 C 101.652344 280.324219 89.183594 267.859375 89.183594 252.476562 C 89.183594 237.097656 101.652344 224.628906 117.035156 224.628906 " fill-opacity="1" fill-rule="nonzero"/></g><g clip-path="url(#ed65e9cac5)"><path fill="#004aad" d="M 190.582031 170.128906 L 190.582031 235.710938 L 94.328125 180.136719 L 159.613281 142.445312 C 160.28125 142.0625 160.6875 141.351562 160.6875 140.582031 L 160.6875 124.742188 C 160.6875 123.082031 158.894531 122.046875 157.460938 122.875 L 71.796875 172.335938 C 69.007812 173.941406 67.289062 176.917969 67.289062 180.136719 C 67.289062 183.359375 69.007812 186.335938 71.796875 187.941406 L 195.089844 259.125 C 196.484375 259.929688 198.039062 260.335938 199.59375 260.335938 C 201.152344 260.335938 202.707031 259.929688 204.101562 259.125 C 206.890625 257.515625 208.609375 254.542969 208.609375 251.320312 L 208.609375 178.089844 C 208.609375 177.324219 208.199219 176.613281 207.535156 176.230469 L 193.816406 168.269531 C 192.378906 167.4375 190.582031 168.472656 190.582031 170.128906 " fill-opacity="1" fill-rule="nonzero"/></g><g clip-path="url(#c3431126b3)"><path fill="#333333" d="M 257.933594 150.367188 C 242.554688 150.367188 230.085938 137.898438 230.085938 122.519531 C 230.085938 107.136719 242.554688 94.667969 257.933594 94.667969 C 273.316406 94.667969 285.785156 107.136719 285.785156 122.519531 C 285.785156 137.898438 273.316406 150.367188 257.933594 150.367188 " fill-opacity="1" fill-rule="nonzero"/></g><path fill="#333333" d="M 184.386719 204.863281 L 184.386719 139.28125 L 280.640625 194.855469 L 215.355469 232.550781 C 214.6875 232.933594 214.28125 233.644531 214.28125 234.414062 L 214.28125 250.253906 C 214.28125 251.914062 216.070312 252.945312 217.507812 252.121094 L 303.171875 202.660156 C 305.957031 201.050781 307.679688 198.078125 307.679688 194.855469 C 307.679688 191.636719 305.957031 188.660156 303.171875 187.050781 L 179.878906 115.867188 C 178.484375 115.0625 176.929688 114.660156 175.375 114.660156 C 173.816406 114.660156 172.261719 115.0625 170.867188 115.867188 C 168.078125 117.476562 166.359375 120.453125 166.359375 123.671875 L 166.359375 196.902344 C 166.359375 197.671875 166.765625 198.378906 167.433594 198.765625 L 181.152344 206.726562 C 182.585938 207.558594 184.386719 206.523438 184.386719 204.863281 " fill-opacity="1" fill-rule="nonzero"/></svg>